<svg width="1086" height="900" viewBox="0 0 1086 900" fill="none" xmlns="http://www.w3.org/2000/svg">
<path d="M437 365.5C607 244.7 688.167 82.5 707.5 16.5L895.5 -66.5C1010.17 -51.8333 1244.4 -14.7 1264 16.5C1288.5 55.5 1230 145.5 1159 153C1088 160.5 912.5 365.5 854 429C795.5 492.5 788 807 637 851C486 895 307.5 831.5 271 736.5C234.5 641.5 224.5 516.5 437 365.5Z" fill="#FF7200" fill-opacity="0.27"/>
<path d="M297.15 382.797C568.042 210.882 697.379 -19.9519 728.186 -113.879L1027.76 -232C1210.48 -211.127 1583.72 -158.281 1614.96 -113.879C1654 -58.3767 1560.78 69.706 1447.64 80.3796C1334.5 91.0531 1054.85 382.797 961.631 473.167C868.412 563.536 856.461 1011.11 615.846 1073.73C375.231 1136.35 90.7949 1045.98 32.6329 910.783C-25.529 775.584 -41.4638 597.692 297.15 382.797Z" fill="#FF7200" fill-opacity="0.27"/>
</svg>
